<svg width="191" height="310" viewBox="0 0 191 310" fill="none" xmlns="http://www.w3.org/2000/svg">
<rect x="1" y="1" width="189" height="307.984" fill="#FFF8E9" stroke="black" stroke-width="2"/>
<rect x="13" y="15" width="166" height="132" fill="#DB5B34" stroke="black" stroke-width="2"/>
<rect x="13" y="163" width="166" height="132" fill="#DB5B34" stroke="black" stroke-width="2"/>
<rect x="161" y="15" width="18" height="132" fill="#F5D066" stroke="black" stroke-width="2"/>
<rect x="161" y="163" width="18" height="116" fill="#F5D066" stroke="black" stroke-width="2"/>
<path d="M12 280C127.345 231.502 146.5 83.5253 139.829 15H12.7263L12 280Z" fill="#F5D066" stroke="black" stroke-width="2"/>
<mask id="path-7-inside-1_4_164" fill="white">
<path d="M12 146H141V164H12V146Z"/>
</mask>
<path d="M12 146H141V164H12V146Z" fill="#FFF8E9"/>
<path d="M12 146V148H141V146V144H12V146ZM141 164V162H12V164V166H141V164Z" fill="black" mask="url(#path-7-inside-1_4_164)"/>
</svg>
