<svg width="289" height="178" viewBox="0 0 289 178" fill="none" xmlns="http://www.w3.org/2000/svg">
<rect x="1" y="29" width="287" height="148" fill="#C39258" stroke="black" stroke-width="2"/>
<rect x="14" y="40" width="261" height="126" fill="#FCCA0B" stroke="black" stroke-width="2"/>
<path d="M212 107.912V96L262 111.485V123L212 107.912Z" fill="#1E75E9" stroke="black"/>
<path d="M212 148.757V85L262 99.8366V166L212 148.757Z" fill="white"/>
<path d="M212 96L261.569 111L276 108.6" stroke="black" stroke-width="2"/>
<path d="M212 108L261.569 123L276 120.6" stroke="black" stroke-width="2"/>
<path d="M212 119L261.569 135L276 132.44" stroke="black" stroke-width="2"/>
<path d="M212 129L261.569 145L276 142.44" stroke="black" stroke-width="2"/>
<path d="M212 139L261.569 155L276 152.44" stroke="black" stroke-width="2"/>
<mask id="path-10-inside-1_4_181" fill="white">
<path d="M289 30C289 22.0435 273.776 14.4129 246.677 8.7868C219.578 3.16071 182.824 6.00699e-07 144.5 0C106.176 -6.00699e-07 69.4221 3.1607 42.3231 8.78679C15.2241 14.4129 5.78673e-06 22.0435 0 30L144.5 30H289Z"/>
</mask>
<path d="M289 30C289 22.0435 273.776 14.4129 246.677 8.7868C219.578 3.16071 182.824 6.00699e-07 144.5 0C106.176 -6.00699e-07 69.4221 3.1607 42.3231 8.78679C15.2241 14.4129 5.78673e-06 22.0435 0 30L144.5 30H289Z" fill="#C39258" stroke="black" stroke-width="4" mask="url(#path-10-inside-1_4_181)"/>
<path d="M21 24H141L37.5354 17C28.8425 17.8 22.8898 22 21 24Z" fill="#9C6A53" stroke="black" stroke-width="2"/>
<path d="M61 13.9883L140.16 18.5707L72.3124 7.63144C66.5318 8.09814 62.3622 12.0638 61 13.9883Z" fill="#9C6A53" stroke="black" stroke-width="2"/>
<path d="M228.565 13.9883L149.405 18.5707L217.252 7.63144C223.033 8.09814 227.202 12.0638 228.565 13.9883Z" fill="#9C6A53" stroke="black" stroke-width="2"/>
<path d="M269 24H149L252.465 17C261.157 17.8 267.11 22 269 24Z" fill="#9C6A53" stroke="black" stroke-width="2"/>
<path d="M262 100L275 98" stroke="black" stroke-width="2"/>
<path d="M269.4 70L211 83.6944L263 99L275 97.3889V72.0139L269.4 70Z" fill="#21AE6A"/>
<path d="M212 84.1642L268.883 71L275 72.8806V98" stroke="black" stroke-width="2"/>
<path d="M262 99.7692L212 85V149.615L262 165V99.7692Z" stroke="black" stroke-width="2"/>
<path d="M106 166L212.5 125" stroke="black" stroke-width="2"/>
</svg>
